<mxfile host="Electron" modified="2024-04-03T19:06:35.541Z" agent="Mozilla/5.0 (X11; Linux x86_64) AppleWebKit/537.36 (KHTML, like Gecko) draw.io/24.1.0 Chrome/120.0.6099.109 Electron/28.1.0 Safari/537.36" etag="Fli6Pdj9If_MSroCaN-E" version="24.1.0" type="device">
  <diagram name="Page-1" id="I0mH41tTaIeV-v2jcqT5">
    <mxGraphModel dx="794" dy="572" grid="1" gridSize="10" guides="1" tooltips="1" connect="1" arrows="1" fold="1" page="1" pageScale="1" pageWidth="827" pageHeight="1169" math="0" shadow="0">
      <root>
        <mxCell id="0" />
        <mxCell id="1" parent="0" />
        <mxCell id="eYueyt7AxwAGp0pQIu5K-1" value="Users" style="swimlane;fontStyle=0;childLayout=stackLayout;horizontal=1;startSize=26;fillColor=none;horizontalStack=0;resizeParent=1;resizeParentMax=0;resizeLast=0;collapsible=1;marginBottom=0;whiteSpace=wrap;html=1;" parent="1" vertex="1">
          <mxGeometry x="70" y="130" width="180" height="290" as="geometry" />
        </mxCell>
        <mxCell id="eYueyt7AxwAGp0pQIu5K-2" value="PK UserID" style="text;strokeColor=none;fillColor=none;align=left;verticalAlign=top;spacingLeft=4;spacingRight=4;overflow=hidden;rotatable=0;points=[[0,0.5],[1,0.5]];portConstraint=eastwest;whiteSpace=wrap;html=1;" parent="eYueyt7AxwAGp0pQIu5K-1" vertex="1">
          <mxGeometry y="26" width="180" height="26" as="geometry" />
        </mxCell>
        <mxCell id="eYueyt7AxwAGp0pQIu5K-3" value="TEXT Username" style="text;strokeColor=none;fillColor=none;align=left;verticalAlign=top;spacingLeft=4;spacingRight=4;overflow=hidden;rotatable=0;points=[[0,0.5],[1,0.5]];portConstraint=eastwest;whiteSpace=wrap;html=1;" parent="eYueyt7AxwAGp0pQIu5K-1" vertex="1">
          <mxGeometry y="52" width="180" height="26" as="geometry" />
        </mxCell>
        <mxCell id="eYueyt7AxwAGp0pQIu5K-4" value="TEXT Password&lt;div&gt;&lt;br&gt;&lt;/div&gt;&lt;div&gt;TEXT Name&lt;div&gt;&lt;br&gt;&lt;/div&gt;&lt;div&gt;VARCHAR BillingInfo&lt;/div&gt;&lt;div&gt;&lt;br&gt;&lt;/div&gt;&lt;div&gt;BOOLEAN HasPaid&lt;/div&gt;&lt;div&gt;&lt;br&gt;&lt;/div&gt;&lt;div&gt;DATERANGE Sessions&lt;/div&gt;&lt;/div&gt;&lt;div&gt;&lt;br&gt;&lt;/div&gt;&lt;div&gt;FK TrainerID&lt;br&gt;&lt;/div&gt;&lt;div&gt;&lt;br&gt;&lt;/div&gt;&lt;div&gt;FK ExcerciseID&lt;/div&gt;" style="text;strokeColor=none;fillColor=none;align=left;verticalAlign=top;spacingLeft=4;spacingRight=4;overflow=hidden;rotatable=0;points=[[0,0.5],[1,0.5]];portConstraint=eastwest;whiteSpace=wrap;html=1;" parent="eYueyt7AxwAGp0pQIu5K-1" vertex="1">
          <mxGeometry y="78" width="180" height="212" as="geometry" />
        </mxCell>
        <mxCell id="eYueyt7AxwAGp0pQIu5K-5" value="Dashboard" style="swimlane;fontStyle=0;childLayout=stackLayout;horizontal=1;startSize=26;fillColor=none;horizontalStack=0;resizeParent=1;resizeParentMax=0;resizeLast=0;collapsible=1;marginBottom=0;whiteSpace=wrap;html=1;" parent="1" vertex="1">
          <mxGeometry x="410" y="30" width="140" height="140" as="geometry" />
        </mxCell>
        <mxCell id="eYueyt7AxwAGp0pQIu5K-7" value="FK UserID" style="text;strokeColor=none;fillColor=none;align=left;verticalAlign=top;spacingLeft=4;spacingRight=4;overflow=hidden;rotatable=0;points=[[0,0.5],[1,0.5]];portConstraint=eastwest;whiteSpace=wrap;html=1;" parent="eYueyt7AxwAGp0pQIu5K-5" vertex="1">
          <mxGeometry y="26" width="140" height="26" as="geometry" />
        </mxCell>
        <mxCell id="eYueyt7AxwAGp0pQIu5K-8" value="FK AchievementID&lt;div&gt;&lt;br&gt;&lt;/div&gt;&lt;div&gt;FK HealthID&lt;/div&gt;&lt;div&gt;&lt;br&gt;&lt;/div&gt;&lt;div&gt;FK WorkoutID&lt;/div&gt;" style="text;strokeColor=none;fillColor=none;align=left;verticalAlign=top;spacingLeft=4;spacingRight=4;overflow=hidden;rotatable=0;points=[[0,0.5],[1,0.5]];portConstraint=eastwest;whiteSpace=wrap;html=1;" parent="eYueyt7AxwAGp0pQIu5K-5" vertex="1">
          <mxGeometry y="52" width="140" height="88" as="geometry" />
        </mxCell>
        <mxCell id="eYueyt7AxwAGp0pQIu5K-9" value="Health" style="swimlane;fontStyle=0;childLayout=stackLayout;horizontal=1;startSize=26;fillColor=none;horizontalStack=0;resizeParent=1;resizeParentMax=0;resizeLast=0;collapsible=1;marginBottom=0;whiteSpace=wrap;html=1;" parent="1" vertex="1">
          <mxGeometry x="630" y="100" width="140" height="170" as="geometry" />
        </mxCell>
        <mxCell id="eYueyt7AxwAGp0pQIu5K-10" value="PK HealthID" style="text;strokeColor=none;fillColor=none;align=left;verticalAlign=top;spacingLeft=4;spacingRight=4;overflow=hidden;rotatable=0;points=[[0,0.5],[1,0.5]];portConstraint=eastwest;whiteSpace=wrap;html=1;" parent="eYueyt7AxwAGp0pQIu5K-9" vertex="1">
          <mxGeometry y="26" width="140" height="26" as="geometry" />
        </mxCell>
        <mxCell id="eYueyt7AxwAGp0pQIu5K-11" value="INT Weight" style="text;strokeColor=none;fillColor=none;align=left;verticalAlign=top;spacingLeft=4;spacingRight=4;overflow=hidden;rotatable=0;points=[[0,0.5],[1,0.5]];portConstraint=eastwest;whiteSpace=wrap;html=1;" parent="eYueyt7AxwAGp0pQIu5K-9" vertex="1">
          <mxGeometry y="52" width="140" height="26" as="geometry" />
        </mxCell>
        <mxCell id="eYueyt7AxwAGp0pQIu5K-12" value="INT Height&lt;div&gt;&lt;br&gt;&lt;/div&gt;&lt;div&gt;CHAR Gender&lt;/div&gt;&lt;div&gt;&lt;br&gt;&lt;/div&gt;" style="text;strokeColor=none;fillColor=none;align=left;verticalAlign=top;spacingLeft=4;spacingRight=4;overflow=hidden;rotatable=0;points=[[0,0.5],[1,0.5]];portConstraint=eastwest;whiteSpace=wrap;html=1;" parent="eYueyt7AxwAGp0pQIu5K-9" vertex="1">
          <mxGeometry y="78" width="140" height="92" as="geometry" />
        </mxCell>
        <mxCell id="H6tUtljMixaKCOBUPWV2-1" value="Equipment" style="swimlane;fontStyle=0;childLayout=stackLayout;horizontal=1;startSize=26;fillColor=none;horizontalStack=0;resizeParent=1;resizeParentMax=0;resizeLast=0;collapsible=1;marginBottom=0;whiteSpace=wrap;html=1;" parent="1" vertex="1">
          <mxGeometry x="330" y="220" width="180" height="110" as="geometry" />
        </mxCell>
        <mxCell id="H6tUtljMixaKCOBUPWV2-2" value="PK AssetTag" style="text;strokeColor=none;fillColor=none;align=left;verticalAlign=top;spacingLeft=4;spacingRight=4;overflow=hidden;rotatable=0;points=[[0,0.5],[1,0.5]];portConstraint=eastwest;whiteSpace=wrap;html=1;" parent="H6tUtljMixaKCOBUPWV2-1" vertex="1">
          <mxGeometry y="26" width="180" height="26" as="geometry" />
        </mxCell>
        <mxCell id="H6tUtljMixaKCOBUPWV2-3" value="VARCHAR Name" style="text;strokeColor=none;fillColor=none;align=left;verticalAlign=top;spacingLeft=4;spacingRight=4;overflow=hidden;rotatable=0;points=[[0,0.5],[1,0.5]];portConstraint=eastwest;whiteSpace=wrap;html=1;" parent="H6tUtljMixaKCOBUPWV2-1" vertex="1">
          <mxGeometry y="52" width="180" height="26" as="geometry" />
        </mxCell>
        <mxCell id="H6tUtljMixaKCOBUPWV2-4" value="BOOLEAN NeedsRepair" style="text;strokeColor=none;fillColor=none;align=left;verticalAlign=top;spacingLeft=4;spacingRight=4;overflow=hidden;rotatable=0;points=[[0,0.5],[1,0.5]];portConstraint=eastwest;whiteSpace=wrap;html=1;" parent="H6tUtljMixaKCOBUPWV2-1" vertex="1">
          <mxGeometry y="78" width="180" height="32" as="geometry" />
        </mxCell>
        <mxCell id="H6tUtljMixaKCOBUPWV2-5" value="Rooms" style="swimlane;fontStyle=0;childLayout=stackLayout;horizontal=1;startSize=26;fillColor=none;horizontalStack=0;resizeParent=1;resizeParentMax=0;resizeLast=0;collapsible=1;marginBottom=0;whiteSpace=wrap;html=1;" parent="1" vertex="1">
          <mxGeometry x="280" y="390" width="180" height="110" as="geometry" />
        </mxCell>
        <mxCell id="H6tUtljMixaKCOBUPWV2-6" value="PK RoomNO" style="text;strokeColor=none;fillColor=none;align=left;verticalAlign=top;spacingLeft=4;spacingRight=4;overflow=hidden;rotatable=0;points=[[0,0.5],[1,0.5]];portConstraint=eastwest;whiteSpace=wrap;html=1;" parent="H6tUtljMixaKCOBUPWV2-5" vertex="1">
          <mxGeometry y="26" width="180" height="26" as="geometry" />
        </mxCell>
        <mxCell id="H6tUtljMixaKCOBUPWV2-7" value="DATERANGE Availability&lt;div&gt;&lt;br&gt;&lt;/div&gt;&lt;div&gt;BOOLEAN is_bookable&lt;/div&gt;" style="text;strokeColor=none;fillColor=none;align=left;verticalAlign=top;spacingLeft=4;spacingRight=4;overflow=hidden;rotatable=0;points=[[0,0.5],[1,0.5]];portConstraint=eastwest;whiteSpace=wrap;html=1;" parent="H6tUtljMixaKCOBUPWV2-5" vertex="1">
          <mxGeometry y="52" width="180" height="58" as="geometry" />
        </mxCell>
        <mxCell id="Zs19i9RrSn4hCzTLVVAi-1" value="Exercises" style="swimlane;fontStyle=0;childLayout=stackLayout;horizontal=1;startSize=26;fillColor=none;horizontalStack=0;resizeParent=1;resizeParentMax=0;resizeLast=0;collapsible=1;marginBottom=0;whiteSpace=wrap;html=1;" parent="1" vertex="1">
          <mxGeometry x="510" y="380" width="210" height="150" as="geometry" />
        </mxCell>
        <mxCell id="Zs19i9RrSn4hCzTLVVAi-2" value="PK ExerciseID&lt;div&gt;&lt;br&gt;&lt;/div&gt;&lt;div&gt;TEXT Name&lt;br&gt;&lt;div&gt;&lt;br&gt;&lt;/div&gt;&lt;div&gt;TEXT Description&lt;/div&gt;&lt;div&gt;&lt;br&gt;&lt;/div&gt;&lt;div&gt;JSON ExercisePlan&lt;/div&gt;&lt;/div&gt;&lt;div&gt;&lt;br&gt;&lt;/div&gt;" style="text;strokeColor=none;fillColor=none;align=left;verticalAlign=top;spacingLeft=4;spacingRight=4;overflow=hidden;rotatable=0;points=[[0,0.5],[1,0.5]];portConstraint=eastwest;whiteSpace=wrap;html=1;" parent="Zs19i9RrSn4hCzTLVVAi-1" vertex="1">
          <mxGeometry y="26" width="210" height="124" as="geometry" />
        </mxCell>
        <mxCell id="DjFHKXA9KEzAuEkWo61J-1" value="Trainers" style="swimlane;fontStyle=0;childLayout=stackLayout;horizontal=1;startSize=26;fillColor=none;horizontalStack=0;resizeParent=1;resizeParentMax=0;resizeLast=0;collapsible=1;marginBottom=0;whiteSpace=wrap;html=1;" parent="1" vertex="1">
          <mxGeometry x="190" y="520" width="140" height="150" as="geometry" />
        </mxCell>
        <mxCell id="DjFHKXA9KEzAuEkWo61J-2" value="PK TrainerID&lt;div&gt;&lt;br&gt;&lt;/div&gt;&lt;div&gt;TEXT Name&lt;/div&gt;&lt;div&gt;&lt;br&gt;&lt;/div&gt;&lt;div&gt;TEXT Username&lt;/div&gt;&lt;div&gt;&lt;br&gt;&lt;/div&gt;&lt;div&gt;TEXT Password&lt;/div&gt;&lt;div&gt;&lt;br&gt;&lt;/div&gt;&lt;div&gt;DATERANGE Sessions&lt;/div&gt;" style="text;strokeColor=none;fillColor=none;align=left;verticalAlign=top;spacingLeft=4;spacingRight=4;overflow=hidden;rotatable=0;points=[[0,0.5],[1,0.5]];portConstraint=eastwest;whiteSpace=wrap;html=1;" parent="DjFHKXA9KEzAuEkWo61J-1" vertex="1">
          <mxGeometry y="26" width="140" height="124" as="geometry" />
        </mxCell>
        <mxCell id="vtgSMbXhz-DSjmYE2l43-1" value="Admins" style="swimlane;fontStyle=0;childLayout=stackLayout;horizontal=1;startSize=26;fillColor=none;horizontalStack=0;resizeParent=1;resizeParentMax=0;resizeLast=0;collapsible=1;marginBottom=0;whiteSpace=wrap;html=1;" vertex="1" parent="1">
          <mxGeometry x="490" y="585" width="140" height="150" as="geometry" />
        </mxCell>
        <mxCell id="vtgSMbXhz-DSjmYE2l43-2" value="PK AdminID&lt;div&gt;&lt;br&gt;&lt;/div&gt;&lt;div&gt;TEXT Username&lt;/div&gt;&lt;div&gt;&lt;br&gt;&lt;/div&gt;&lt;div&gt;TEXT Password&lt;/div&gt;&lt;div&gt;&lt;br&gt;&lt;/div&gt;&lt;div&gt;TEXT Name&lt;/div&gt;&lt;div&gt;&lt;br&gt;&lt;/div&gt;&lt;div&gt;&lt;br&gt;&lt;/div&gt;" style="text;strokeColor=none;fillColor=none;align=left;verticalAlign=top;spacingLeft=4;spacingRight=4;overflow=hidden;rotatable=0;points=[[0,0.5],[1,0.5]];portConstraint=eastwest;whiteSpace=wrap;html=1;" vertex="1" parent="vtgSMbXhz-DSjmYE2l43-1">
          <mxGeometry y="26" width="140" height="124" as="geometry" />
        </mxCell>
      </root>
    </mxGraphModel>
  </diagram>
</mxfile>
